<svg width="33" height="30" viewBox="0 0 33 30" fill="none" xmlns="http://www.w3.org/2000/svg">
<path d="M20.5 29C21.2943 29.0299 22.0682 28.7449 22.6535 28.207C23.2387 27.6692 23.5879 26.922 23.625 26.128H17.375C17.4095 26.9229 17.7579 27.6717 18.3438 28.2101C18.9296 28.7485 19.705 29.0325 20.5 29ZM29.875 20.385V13.205C29.9723 11.1037 29.3182 9.03632 28.0298 7.37341C26.7414 5.7105 24.903 4.5607 22.844 4.13001V3.15401C22.8185 2.55763 22.5574 1.99576 22.1178 1.59186C21.6783 1.18796 21.0964 0.975085 20.5 1.00001C19.9036 0.975085 19.3217 1.18796 18.8822 1.59186C18.4426 1.99576 18.1815 2.55763 18.156 3.15401V4.13001C13.672 5.10601 11.125 8.78201 11.125 13.205V20.384L8 23.256V24.692H33V23.256L29.875 20.385Z" fill="white"/>
<path d="M27.5 15C30.5376 15 33 12.5376 33 9.5C33 6.46243 30.5376 4 27.5 4C24.4624 4 22 6.46243 22 9.5C22 12.5376 24.4624 15 27.5 15Z" fill="#DF2F2F"/>
</svg>
