<svg width="150" height="150" viewBox="0 0 49 49" fill="none" xmlns="http://www.w3.org/2000/svg">
<circle cx="24.5" cy="24.5" r="24.5" fill="#0DB551"/>
<path d="M24.5 0.000515831C18.0473 -0.0417516 11.842 2.51507 7.24789 7.10905C2.65382 11.703 0.0468713 17.9583 0 24.5C0.0468713 31.0417 2.65382 37.297 7.24789 41.891C11.842 46.4849 18.0473 49.0417 24.5 48.9995C30.9527 49.0417 37.158 46.4849 41.7521 41.891C46.3462 37.297 48.9531 31.0417 49 24.5C48.9531 17.9583 46.3462 11.703 41.7521 7.10905C37.158 2.51507 30.9527 -0.0417516 24.5 0.000515831V0.000515831ZM24.5 7.35036C25.9297 7.37025 27.3217 7.81825 28.501 8.63801C29.6802 9.45777 30.594 10.6127 31.1276 11.9576C31.6611 13.3025 31.7905 14.7772 31.4996 16.1965C31.2086 17.6157 30.5102 18.9161 29.4922 19.934C28.4742 20.9519 27.1821 21.642 25.7783 21.9174C24.3745 22.1929 22.9217 22.0414 21.6026 21.482C20.2835 20.9227 19.1569 19.9804 18.3646 18.7737C17.5723 17.567 17.1496 16.1498 17.1497 14.7002C17.155 13.7279 17.3494 12.7663 17.7219 11.8703C18.0944 10.9744 18.6376 10.1617 19.3204 9.47898C20.0032 8.79622 20.8122 8.25675 21.701 7.89148C22.5898 7.52622 23.541 7.34233 24.5 7.35036V7.35036ZM24.5 42.14C21.5998 42.146 18.7425 41.4296 16.1794 40.0538C13.6163 38.678 11.4257 36.685 9.80039 34.2499C9.87428 29.3749 19.6008 26.7043 24.5 26.7043C29.3756 26.7043 39.1267 29.3749 39.1996 34.2499C37.5743 36.685 35.3837 38.678 32.8206 40.0538C30.2575 41.4296 27.4002 42.146 24.5 42.14V42.14Z" fill="white"/>
</svg>
